<?xml version="1.0" standalone="no"?>
<!DOCTYPE svg PUBLIC "-//W3C//DTD SVG 1.1//EN" "http://www.w3.org/Graphics/SVG/1.1/DTD/svg11.dtd" >
<svg xmlns="http://www.w3.org/2000/svg" xmlns:xlink="http://www.w3.org/1999/xlink" version="1.1">
<metadata></metadata>
<defs>
<font id="aldo_the_apacheregular" horiz-adv-x="1006" >
<font-face units-per-em="2048" ascent="1638" descent="-410" />
<missing-glyph horiz-adv-x="467" />
<glyph horiz-adv-x="0" />
<glyph horiz-adv-x="682" />
<glyph unicode=" "  horiz-adv-x="467" />
<glyph unicode="&#x09;" horiz-adv-x="467" />
<glyph unicode="&#xa0;" horiz-adv-x="467" />
<glyph unicode="!" horiz-adv-x="382" d="M50 1234v212h301v-212l-66 -818h-169zM64 0v281h273v-281h-273z" />
<glyph unicode="&#x22;" horiz-adv-x="724" d="M50 1012v584h256v-584h-256zM426 1012v584h256v-584h-256z" />
<glyph unicode="#" horiz-adv-x="1383" d="M45 408l27 196h277l28 238h-294l25 197h291l46 407h217l-44 -407h237l46 407h217l-46 -407h278l-25 -197h-274l-26 -238h285l-23 -196h-285l-46 -408h-216l45 408h-240l-46 -408h-216l44 408h-282zM564 602h246l27 240h-245z" />
<glyph unicode="$" horiz-adv-x="892" d="M50 0v450h303v-176h188v230l-481 363v579h274v151h240v-151h262v-430h-275v154h-198v-189l482 -362v-619h-283v-150h-240v150h-272z" />
<glyph unicode="%" horiz-adv-x="1436" d="M50 721v538l154 187h391v-538l-143 -187h-402zM133 77l1020 1379l117 -81l-1032 -1385zM255 905h137v357h-137v-357zM795 0v538l143 187h402v-538l-153 -187h-392zM998 184h139v357h-139v-357z" />
<glyph unicode="&#x26;" horiz-adv-x="1347" d="M127 570v324h383v385h323v-385h385v-324l-708 -383v383h-383z" />
<glyph unicode="'" horiz-adv-x="353" d="M50 1012v584h256v-584h-256z" />
<glyph unicode="(" horiz-adv-x="575" d="M50 57v1336l200 203h265v-273h-231v-1199h231v-274h-265z" />
<glyph unicode=")" horiz-adv-x="581" d="M50 124h231v1199h-231v273h265l200 -203v-1336l-200 -207h-265v274z" />
<glyph unicode="*" horiz-adv-x="925" d="M63 1105l63 211l235 -100l-14 262h225l-19 -262l241 100l64 -211l-245 -65l169 -209l-183 -133l-131 227l-146 -227l-182 133l173 209z" />
<glyph unicode="+" horiz-adv-x="1347" d="M127 570v324h383v385h323v-385h385v-324h-385v-383h-323v383h-383z" />
<glyph unicode="," horiz-adv-x="443" d="M62 0v325h306v-325l-171 -261l-129 89l112 172h-118z" />
<glyph unicode="-" horiz-adv-x="548" d="M50 610v210h429v-210h-429z" />
<glyph unicode="." horiz-adv-x="416" d="M50 0v325h306v-325h-306z" />
<glyph unicode="/" horiz-adv-x="587" d="M59 -150l300 1746h159l-301 -1746h-158z" />
<glyph unicode="0" horiz-adv-x="964" d="M50 0v1247l216 199h641v-1247l-215 -199h-642zM354 274h250v897h-250v-897z" />
<glyph unicode="1" horiz-adv-x="655" d="M55 1246l227 199v1h302v-1446h-303l1 1061h-187z" />
<glyph unicode="2" horiz-adv-x="925" d="M50 0v492l504 458v221h-200v-155h-289v230l200 200h592v-608l-503 -448v-116h503v-274h-807z" />
<glyph unicode="3" horiz-adv-x="976" d="M50 0v465h295v-191h259v325h-133v275h133v300h-259v-179h-295v252l215 199h618v-571l-164 -142h188v-533l-200 -200h-657z" />
<glyph unicode="4" horiz-adv-x="1053" d="M58 541l487 905h120l200 -200v-707h131v-252h-131v-287h-291v273h-347zM344 525h230v482z" />
<glyph unicode="5" horiz-adv-x="925" d="M50 199v241h295v-164h209v349h-479v821h742v-275h-444v-268h269l215 -201v-702h-592z" />
<glyph unicode="6" horiz-adv-x="916" d="M50 0v1247l215 199h591v-430h-294v155h-207v-305h501v-667l-215 -199h-591zM355 274h198v314h-198v-314z" />
<glyph unicode="7" horiz-adv-x="946" d="M50 1016v430h629l207 -232l-432 -1214h-311l434 1171h-261v-155h-266z" />
<glyph unicode="8" horiz-adv-x="955" d="M50 0v592l198 147h-174v507l200 200h588v-551l-172 -156h196v-539l-200 -200h-636zM347 274h248v324h-248v-324zM347 858h248v313h-248v-313z" />
<glyph unicode="9" horiz-adv-x="907" d="M50 0v450h295v-176h210v316h-505v656l234 200h576v-1246l-200 -200h-610zM354 868h201v303h-201v-303z" />
<glyph unicode=":" horiz-adv-x="423" d="M50 0v325h306v-325h-306zM50 916v325h306v-325h-306z" />
<glyph unicode=";" horiz-adv-x="482" d="M64 0v325h306v-325l-171 -261l-129 89l113 172h-119zM64 916v325h306v-325h-306z" />
<glyph unicode="&#x3c;" horiz-adv-x="1128" d="M50 531v199l978 578v-239l-755 -440l755 -440v-239z" />
<glyph unicode="=" horiz-adv-x="1086" d="M50 394v199h958v-199h-958zM50 824v199h958v-199h-958z" />
<glyph unicode="&#x3e;" horiz-adv-x="1098" d="M50 -50v239l755 440l-755 440v239l978 -578v-199z" />
<glyph unicode="?" horiz-adv-x="894" d="M50 1016v430h559l215 -199v-407l-244 -245v-179h-273v261l220 229v274h-184v-164h-293zM297 0v281h293v-281h-293z" />
<glyph unicode="@" horiz-adv-x="1415" d="M50 0v1246l200 200h1073v-1246l-200 -200h-645v842l197 200h365v143h-707v-1185h-283zM782 274h258v493h-258v-493z" />
<glyph unicode="A" horiz-adv-x="1000" d="M50 0v1217l233 229h632v-1446h-303v475h-258v-475h-304zM354 750h258v421h-258v-421z" />
<glyph unicode="B" d="M50 200v1246h620l205 -191v-398l-142 -114l195 -141v-602h-678zM353 274h271v328h-271v-328zM353 872h222v299h-222v-299z" />
<glyph unicode="C" horiz-adv-x="973" d="M50 0v1247l216 199h636v-546h-304v271h-244v-897h244v176h304v-250l-200 -200h-652z" />
<glyph unicode="D" horiz-adv-x="976" d="M50 0v1446h622l233 -229v-1017l-203 -200h-652zM353 274h248v897h-248v-897z" />
<glyph unicode="E" horiz-adv-x="823" d="M50 0v1446h702v-275h-402v-279h382v-270h-378v-348h408v-274h-712z" />
<glyph unicode="F" horiz-adv-x="817" d="M50 0v1246l200 200h491v-275h-388v-279h358v-270h-358v-622h-303z" />
<glyph unicode="G" horiz-adv-x="1003" d="M50 0v1446h814v-275h-510v-897h260v223h-123v257h423v-754h-864z" />
<glyph unicode="H" horiz-adv-x="995" d="M50 0v1446h303v-594h260v594h303v-1446h-303v578h-260v-578h-303z" />
<glyph unicode="I" horiz-adv-x="633" d="M50 0v274h100v898h-100v274h503v-274h-100v-898h100v-274h-503z" />
<glyph unicode="J" horiz-adv-x="910" d="M50 0v450h303v-176h168v868h-330v304h633v-1247l-213 -199h-561z" />
<glyph unicode="K" horiz-adv-x="1053" d="M50 0v1446h303v-645h20l284 645h302l-277 -645h279v-801h-303v528h-305v-528h-303z" />
<glyph unicode="L" horiz-adv-x="857" d="M50 0v1446h303v-1172h424v-274h-727z" />
<glyph unicode="M" horiz-adv-x="1249" d="M50 0v1446h350l200 -720l200 720h350v-1446h-280v900l-225 -900h-90l-225 900v-900h-280z" />
<glyph unicode="N" horiz-adv-x="1022" d="M50 0v1446h300l294 -830v830h286v-1446h-300l-296 830v-830h-284z" />
<glyph unicode="O" d="M50 0v1446h873v-1446h-873zM354 274h266v897h-266v-897z" />
<glyph unicode="P" horiz-adv-x="968" d="M50 0v1242l219 204h620v-1079h-536v-367h-303zM353 644h233v527h-233v-527z" />
<glyph unicode="Q" d="M50 0v1246l200 200h677v-1696h-20l-300 250h-557zM354 274h270v897h-270v-897z" />
<glyph unicode="R" horiz-adv-x="979" d="M50 0v1242l220 204h619v-919h-164l192 -527h-304l-180 523h-80v-523h-303zM353 794h233v377h-233v-377z" />
<glyph unicode="S" horiz-adv-x="926" d="M50 0v450h303v-176h188v230l-481 363v579h776v-430h-275v154h-198v-189l482 -362v-619h-795z" />
<glyph unicode="T" horiz-adv-x="984" d="M50 1171v275h861v-275h-273v-1171h-305v1171h-283z" />
<glyph unicode="U" horiz-adv-x="990" d="M50 0v1446h303v-1172h248v1172h304v-1446h-855z" />
<glyph unicode="V" horiz-adv-x="995" d="M57 1446h316l120 -1111l121 1111h311l-192 -1446h-480z" />
<glyph unicode="W" horiz-adv-x="1511" d="M59 1446h295l130 -862l155 862h210l155 -862l130 862h295l-249 -1446h-276l-160 896l-160 -896h-276z" />
<glyph unicode="X" horiz-adv-x="1096" d="M70 0l264 759l-218 687h311l127 -427l129 427h311l-220 -687l264 -759h-327l-157 449l-157 -449h-327z" />
<glyph unicode="Y" horiz-adv-x="1053" d="M70 1446h313l140 -448l152 448h315l-488 -1446h-316l187 553z" />
<glyph unicode="Z" horiz-adv-x="920" d="M50 0v240l437 931h-407v275h669l90 -229l-432 -943h417v-274h-774z" />
<glyph unicode="[" horiz-adv-x="516" d="M50 -150v1746h385v-274h-150v-1198h150v-274h-385z" />
<glyph unicode="\" horiz-adv-x="575" d="M59 1596h159l300 -1746h-158z" />
<glyph unicode="]" horiz-adv-x="500" d="M50 124h150v1198h-150v274h385v-1746h-385v274z" />
<glyph unicode="_" horiz-adv-x="1096" d="M50 -135h984v-204h-984v204z" />
<glyph unicode="`" horiz-adv-x="545" d="M96 1834h250l131 -284h-183z" />
<glyph unicode="a" horiz-adv-x="979" d="M50 0v1217l233 229h632v-1446h-303v475h-258v-475h-304zM354 750h258v421h-258v-421z" />
<glyph unicode="b" d="M50 200v1246h620l205 -191v-398l-142 -114l195 -141v-602h-678zM353 274h271v328h-271v-328zM353 872h222v299h-222v-299z" />
<glyph unicode="c" horiz-adv-x="973" d="M50 0v1247l216 199h636v-546h-304v271h-244v-897h244v176h304v-250l-200 -200h-652z" />
<glyph unicode="d" horiz-adv-x="976" d="M50 0v1446h622l233 -229v-1017l-203 -200h-652zM353 274h248v897h-248v-897z" />
<glyph unicode="e" horiz-adv-x="823" d="M50 0v1446h702v-275h-402v-279h382v-270h-378v-348h408v-274h-712z" />
<glyph unicode="f" horiz-adv-x="817" d="M50 0v1246l200 200h491v-275h-388v-279h358v-270h-358v-622h-303z" />
<glyph unicode="g" horiz-adv-x="1003" d="M50 0v1446h814v-275h-510v-897h260v223h-123v257h423v-754h-864z" />
<glyph unicode="h" horiz-adv-x="995" d="M50 0v1446h303v-594h260v594h303v-1446h-303v578h-260v-578h-303z" />
<glyph unicode="i" horiz-adv-x="415" d="M50 0v1002h303v-1002h-303zM50 1090v356h303v-356h-303z" />
<glyph unicode="j" horiz-adv-x="904" d="M50 0v450h303v-176h168v746h303v-821l-213 -199h-561zM521 1100v346h303v-346h-303z" />
<glyph unicode="k" horiz-adv-x="1053" d="M50 0v1446h303v-645h20l284 645h302l-277 -645h279v-801h-303v528h-305v-528h-303z" />
<glyph unicode="l" horiz-adv-x="857" d="M50 0v1446h303v-1172h424v-274h-727z" />
<glyph unicode="m" horiz-adv-x="1249" d="M50 0v1446h350l200 -720l200 720h350v-1446h-280v900l-225 -900h-90l-225 900v-900h-280z" />
<glyph unicode="n" horiz-adv-x="1022" d="M50 0v1446h300l294 -830v830h286v-1446h-300l-296 830v-830h-284z" />
<glyph unicode="o" d="M50 0v1446h873v-1446h-873zM354 274h266v897h-266v-897z" />
<glyph unicode="p" horiz-adv-x="968" d="M50 0v1242l219 204h620v-1079h-536v-367h-303zM353 644h233v527h-233v-527z" />
<glyph unicode="q" d="M50 0v1246l200 200h677v-1696h-20l-300 250h-557zM354 274h270v897h-270v-897z" />
<glyph unicode="r" horiz-adv-x="979" d="M50 0v1242l220 204h619v-919h-164l192 -527h-304l-180 523h-80v-523h-303zM353 794h233v377h-233v-377z" />
<glyph unicode="s" horiz-adv-x="926" d="M50 0v450h303v-176h188v230l-481 363v579h776v-430h-275v154h-198v-189l482 -362v-619h-795z" />
<glyph unicode="t" horiz-adv-x="984" d="M50 1171v275h861v-275h-273v-1171h-305v1171h-283z" />
<glyph unicode="u" horiz-adv-x="990" d="M50 0v1446h303v-1172h248v1172h304v-1446h-855z" />
<glyph unicode="v" horiz-adv-x="995" d="M57 1446h316l120 -1111l121 1111h311l-192 -1446h-480z" />
<glyph unicode="w" horiz-adv-x="1511" d="M59 1446h295l130 -862l155 862h210l155 -862l130 862h295l-249 -1446h-276l-160 896l-160 -896h-276z" />
<glyph unicode="x" horiz-adv-x="1096" d="M70 0l264 759l-218 687h311l127 -427l129 427h311l-220 -687l264 -759h-327l-157 449l-157 -449h-327z" />
<glyph unicode="y" horiz-adv-x="1053" d="M70 1446h313l140 -448l152 448h315l-488 -1446h-316l187 553z" />
<glyph unicode="z" horiz-adv-x="920" d="M50 0v240l437 931h-407v275h669l90 -229l-432 -943h417v-274h-774z" />
<glyph unicode="&#xad;" horiz-adv-x="548" d="M50 610v210h429v-210h-429z" />
<glyph unicode="&#x2000;" horiz-adv-x="917" />
<glyph unicode="&#x2001;" horiz-adv-x="1834" />
<glyph unicode="&#x2002;" horiz-adv-x="917" />
<glyph unicode="&#x2003;" horiz-adv-x="1834" />
<glyph unicode="&#x2004;" horiz-adv-x="611" />
<glyph unicode="&#x2005;" horiz-adv-x="458" />
<glyph unicode="&#x2006;" horiz-adv-x="305" />
<glyph unicode="&#x2007;" horiz-adv-x="305" />
<glyph unicode="&#x2008;" horiz-adv-x="229" />
<glyph unicode="&#x2009;" horiz-adv-x="366" />
<glyph unicode="&#x200a;" horiz-adv-x="101" />
<glyph unicode="&#x2010;" horiz-adv-x="548" d="M50 610v210h429v-210h-429z" />
<glyph unicode="&#x2011;" horiz-adv-x="548" d="M50 610v210h429v-210h-429z" />
<glyph unicode="&#x2012;" horiz-adv-x="548" d="M50 610v210h429v-210h-429z" />
<glyph unicode="&#x2013;" horiz-adv-x="1143" d="M50 610v210h1024v-210h-1024z" />
<glyph unicode="&#x2014;" horiz-adv-x="2167" d="M50 610v210h2048v-210h-2048z" />
<glyph unicode="&#x202f;" horiz-adv-x="366" />
<glyph unicode="&#x205f;" horiz-adv-x="458" />
<glyph unicode="&#x25fc;" horiz-adv-x="1445" d="M0 0v1445h1445v-1445h-1445z" />
</font>
</defs>
</svg>
